{
    "asset" : {
        "generator" : "Khronos glTF Blender I/O v1.6.16",
        "version" : "2.0"
    },
    "scene" : 0,
    "scenes" : [
        {
            "name" : "Scene",
            "nodes" : [
                0,
                1,
                2
            ]
        }
    ],
    "nodes" : [
        {
            "extras" : {},
            "mesh" : 0,
            "name" : "Sphere",
            "scale" : [
                1.998285174369812,
                1.998285174369812,
                1.998285174369812
            ],
            "translation" : [
                0,
                0,
                -0.13260245323181152
            ]
        },
        {
            "extras" : {},
            "mesh" : 1,
            "name" : "Cone",
            "scale" : [
                2.086986541748047,
                2.086986541748047,
                2.086986541748047
            ],
            "translation" : [
                0,
                0.3954828679561615,
                -0.15448883175849915
            ]
        },
        {
            "extras" : {},
            "mesh" : 2,
            "name" : "Cube",
            "scale" : [
                1.6056315898895264,
                1.6056315898895264,
                1.6056315898895264
            ]
        }
    ],
    "meshes" : [
        {
            "extras" : {
                "tags" : "lod distance_20"
            },
            "name" : "Sphere",
            "primitives" : [
                {
                    "attributes" : {
                        "POSITION" : 0,
                        "NORMAL" : 1,
                        "TEXCOORD_0" : 2
                    },
                    "indices" : 3
                }
            ]
        },
        {
            "extras" : {
                "tags" : "lod distance_10"
            },
            "name" : "Cone",
            "primitives" : [
                {
                    "attributes" : {
                        "POSITION" : 4,
                        "NORMAL" : 5,
                        "TEXCOORD_0" : 6
                    },
                    "indices" : 7
                }
            ]
        },
        {
            "extras" : {
                "tags" : "lod distance_40"
            },
            "name" : "Cube.001",
            "primitives" : [
                {
                    "attributes" : {
                        "POSITION" : 8,
                        "NORMAL" : 9,
                        "TEXCOORD_0" : 10
                    },
                    "indices" : 11
                }
            ]
        }
    ],
    "accessors" : [
        {
            "bufferView" : 0,
            "componentType" : 5126,
            "count" : 1984,
            "max" : [
                0.9999997019767761,
                1,
                0.9999994039535522
            ],
            "min" : [
                -0.9999990463256836,
                -1,
                -0.9999987483024597
            ],
            "type" : "VEC3"
        },
        {
            "bufferView" : 1,
            "componentType" : 5126,
            "count" : 1984,
            "type" : "VEC3"
        },
        {
            "bufferView" : 2,
            "componentType" : 5126,
            "count" : 1984,
            "type" : "VEC2"
        },
        {
            "bufferView" : 3,
            "componentType" : 5123,
            "count" : 2880,
            "type" : "SCALAR"
        },
        {
            "bufferView" : 4,
            "componentType" : 5126,
            "count" : 128,
            "max" : [
                1,
                1,
                1
            ],
            "min" : [
                -1,
                -1,
                -1
            ],
            "type" : "VEC3"
        },
        {
            "bufferView" : 5,
            "componentType" : 5126,
            "count" : 128,
            "type" : "VEC3"
        },
        {
            "bufferView" : 6,
            "componentType" : 5126,
            "count" : 128,
            "type" : "VEC2"
        },
        {
            "bufferView" : 7,
            "componentType" : 5123,
            "count" : 186,
            "type" : "SCALAR"
        },
        {
            "bufferView" : 8,
            "componentType" : 5126,
            "count" : 24,
            "max" : [
                1,
                1,
                1
            ],
            "min" : [
                -1,
                -1,
                -1
            ],
            "type" : "VEC3"
        },
        {
            "bufferView" : 9,
            "componentType" : 5126,
            "count" : 24,
            "type" : "VEC3"
        },
        {
            "bufferView" : 10,
            "componentType" : 5126,
            "count" : 24,
            "type" : "VEC2"
        },
        {
            "bufferView" : 11,
            "componentType" : 5123,
            "count" : 36,
            "type" : "SCALAR"
        }
    ],
    "bufferViews" : [
        {
            "buffer" : 0,
            "byteLength" : 23808,
            "byteOffset" : 0
        },
        {
            "buffer" : 0,
            "byteLength" : 23808,
            "byteOffset" : 23808
        },
        {
            "buffer" : 0,
            "byteLength" : 15872,
            "byteOffset" : 47616
        },
        {
            "buffer" : 0,
            "byteLength" : 5760,
            "byteOffset" : 63488
        },
        {
            "buffer" : 0,
            "byteLength" : 1536,
            "byteOffset" : 69248
        },
        {
            "buffer" : 0,
            "byteLength" : 1536,
            "byteOffset" : 70784
        },
        {
            "buffer" : 0,
            "byteLength" : 1024,
            "byteOffset" : 72320
        },
        {
            "buffer" : 0,
            "byteLength" : 372,
            "byteOffset" : 73344
        },
        {
            "buffer" : 0,
            "byteLength" : 288,
            "byteOffset" : 73716
        },
        {
            "buffer" : 0,
            "byteLength" : 288,
            "byteOffset" : 74004
        },
        {
            "buffer" : 0,
            "byteLength" : 192,
            "byteOffset" : 74292
        },
        {
            "buffer" : 0,
            "byteLength" : 72,
            "byteOffset" : 74484
        }
    ],
    "buffers" : [
        {
            "byteLength" : 74556,
            "uri" : "lod.bin"
        }
    ]
}
